<svg width="64" height="64" viewBox="0 0 64 64" fill="none" xmlns="http://www.w3.org/2000/svg">
<path d="M0 16C0 7.16344 7.16344 0 16 0H48C56.8366 0 64 7.16344 64 16V48C64 56.8366 56.8366 64 48 64H16C7.16344 64 0 56.8366 0 48V16Z" fill="#FFE3E3"/>
<path d="M24 45.3333V21.3333C24 20.626 24.281 19.9478 24.781 19.4477C25.2811 18.9476 25.9594 18.6666 26.6667 18.6666H37.3333C38.0406 18.6666 38.7189 18.9476 39.219 19.4477C39.719 19.9478 40 20.626 40 21.3333V45.3333H24Z" stroke="#D62828" stroke-width="2.66667" stroke-linecap="round" stroke-linejoin="round"/>
<path d="M24 32H21.3334C20.6261 32 19.9478 32.281 19.4477 32.781C18.9476 33.2811 18.6667 33.9594 18.6667 34.6667V42.6667C18.6667 43.3739 18.9476 44.0522 19.4477 44.5523C19.9478 45.0524 20.6261 45.3333 21.3334 45.3333H24" stroke="#D62828" stroke-width="2.66667" stroke-linecap="round" stroke-linejoin="round"/>
<path d="M40 28H42.6667C43.3739 28 44.0522 28.281 44.5523 28.781C45.0524 29.2811 45.3333 29.9594 45.3333 30.6667V42.6667C45.3333 43.3739 45.0524 44.0522 44.5523 44.5523C44.0522 45.0524 43.3739 45.3333 42.6667 45.3333H40" stroke="#D62828" stroke-width="2.66667" stroke-linecap="round" stroke-linejoin="round"/>
<path d="M29.3333 24H34.6666" stroke="#D62828" stroke-width="2.66667" stroke-linecap="round" stroke-linejoin="round"/>
<path d="M29.3333 29.3334H34.6666" stroke="#D62828" stroke-width="2.66667" stroke-linecap="round" stroke-linejoin="round"/>
<path d="M29.3333 34.6666H34.6666" stroke="#D62828" stroke-width="2.66667" stroke-linecap="round" stroke-linejoin="round"/>
<path d="M29.3333 40H34.6666" stroke="#D62828" stroke-width="2.66667" stroke-linecap="round" stroke-linejoin="round"/>
</svg>
