<svg width="48" height="48" viewBox="0 0 48 48" fill="none" xmlns="http://www.w3.org/2000/svg">
<path fill-rule="evenodd" clip-rule="evenodd" d="M25.404 4.39024C24.4988 4.05091 23.5012 4.05091 22.596 4.39024L8.596 9.64024C7.83339 9.92611 7.1762 10.438 6.71231 11.1074C6.24841 11.7768 5.9999 12.5718 6 13.3862V24.1122C5.99993 27.4551 6.93074 30.7319 8.68814 33.5756C10.4455 36.4192 12.9601 38.7172 15.95 40.2122L22.658 43.5662C23.0747 43.7746 23.5341 43.8831 24 43.8831C24.4659 43.8831 24.9253 43.7746 25.342 43.5662L32.05 40.2122C35.0399 38.7172 37.5545 36.4192 39.3119 33.5756C41.0693 30.7319 42.0001 27.4551 42 24.1122V13.3862C42.0001 12.5718 41.7516 11.7768 41.2877 11.1074C40.8238 10.438 40.1666 9.92611 39.404 9.64024L25.404 4.39024ZM22 8.88624L10 13.3862V24.1122C10.0005 26.712 10.7248 29.2602 12.0918 31.4715C13.4589 33.6828 15.4146 35.4698 17.74 36.6322L22 38.7662V8.88624ZM26 38.7662L30.26 36.6342C32.5857 35.4716 34.5416 33.6844 35.9087 31.4727C37.2758 29.261 37.9999 26.7123 38 24.1122V13.3862L26 8.88624V38.7662Z" fill="#023E7D"/>
</svg>
